<svg xmlns="http://www.w3.org/2000/svg" xmlns:xlink="http://www.w3.org/1999/xlink" version="1.1" width="1000" height="1000" viewBox="0 0 1000 1000" xml:space="preserve">
<desc>Created with Fabric.js 3.5.0</desc>
<defs>
</defs>
<rect x="0" y="0" width="100%" height="100%" fill="#ffffff"/>
<g transform="matrix(0 -6.2552 6.2552 0 500 500.0011)" id="976807">
<g style="" vector-effect="non-scaling-stroke">
		<g transform="matrix(1.3333 0 0 1.3333 -69.1459 -1.6548)" id="surface1">
<path style="stroke: none; stroke-width: 1; stroke-dasharray: none; stroke-linecap: butt; stroke-dashoffset: 0; stroke-linejoin: miter; stroke-miterlimit: 4; is-custom-font: none; font-file-url: none; fill: rgb(0,0,0); fill-rule: nonzero; opacity: 1;" transform=" translate(-3.1797, 3.4219)" d="M 4 -4.125 L 2.5625 -4.4375 C 2.15625 -4.53125 1.609375 -4.859375 1.609375 -5.46875 C 1.609375 -5.90625 1.890625 -6.515625 2.875 -6.515625 C 3.671875 -6.515625 4.6875 -6.1875 4.921875 -4.828125 C 4.953125 -4.578125 4.953125 -4.5625 5.15625 -4.5625 C 5.40625 -4.5625 5.40625 -4.609375 5.40625 -4.84375 L 5.40625 -6.671875 C 5.40625 -6.859375 5.40625 -6.953125 5.21875 -6.953125 C 5.140625 -6.953125 5.140625 -6.9375 5.03125 -6.84375 L 4.578125 -6.40625 C 4 -6.859375 3.34375 -6.953125 2.875 -6.953125 C 1.359375 -6.953125 0.640625 -5.984375 0.640625 -4.9375 C 0.640625 -4.296875 0.96875 -3.84375 1.171875 -3.625 C 1.671875 -3.125 2 -3.0625 3.09375 -2.828125 C 3.96875 -2.625 4.140625 -2.609375 4.359375 -2.390625 C 4.5 -2.25 4.75 -1.984375 4.75 -1.53125 C 4.75 -1.046875 4.5 -0.359375 3.453125 -0.359375 C 2.703125 -0.359375 1.1875 -0.5625 1.109375 -2.046875 C 1.09375 -2.21875 1.09375 -2.265625 0.875 -2.265625 C 0.640625 -2.265625 0.640625 -2.21875 0.640625 -1.984375 L 0.640625 -0.171875 C 0.640625 0.015625 0.640625 0.109375 0.8125 0.109375 C 0.90625 0.109375 0.921875 0.09375 1 0.015625 L 1.46875 -0.4375 C 2.125 0.046875 3.046875 0.109375 3.453125 0.109375 C 5.109375 0.109375 5.71875 -1.015625 5.71875 -2.03125 C 5.71875 -3.125 4.921875 -3.9375 4 -4.125 Z M 4 -4.125" stroke-linecap="round"/>
</g>
		<g transform="matrix(1.3333 0 0 1.3333 -62.2244 -1.2694)" id="surface1">
<path style="stroke: none; stroke-width: 1; stroke-dasharray: none; stroke-linecap: butt; stroke-dashoffset: 0; stroke-linejoin: miter; stroke-miterlimit: 4; is-custom-font: none; font-file-url: none; fill: rgb(0,0,0); fill-rule: nonzero; opacity: 1;" transform=" translate(-2.0078, 3.1328)" d="M 1.03125 -3.953125 L 1.03125 -1.21875 C 1.03125 -0.15625 1.890625 0.0625 2.609375 0.0625 C 3.359375 0.0625 3.8125 -0.515625 3.8125 -1.234375 L 3.8125 -1.765625 L 3.34375 -1.765625 L 3.34375 -1.25 C 3.34375 -0.578125 3.015625 -0.34375 2.734375 -0.34375 C 2.15625 -0.34375 2.15625 -0.984375 2.15625 -1.203125 L 2.15625 -3.953125 L 3.625 -3.953125 L 3.625 -4.421875 L 2.15625 -4.421875 L 2.15625 -6.328125 L 1.6875 -6.328125 C 1.6875 -5.328125 1.203125 -4.34375 0.203125 -4.3125 L 0.203125 -3.953125 Z M 1.03125 -3.953125" stroke-linecap="round"/>
</g>
		<g transform="matrix(1.3333 0 0 1.3333 -55.0448 -0.061)" id="surface1">
<path style="stroke: none; stroke-width: 1; stroke-dasharray: none; stroke-linecap: butt; stroke-dashoffset: 0; stroke-linejoin: miter; stroke-miterlimit: 4; is-custom-font: none; font-file-url: none; fill: rgb(0,0,0); fill-rule: nonzero; opacity: 1;" transform=" translate(-2.9375, 2.2266)" d="M 3.734375 -0.765625 C 3.734375 -0.453125 3.734375 0 4.765625 0 L 5.25 0 C 5.4375 0 5.5625 0 5.5625 -0.234375 C 5.5625 -0.46875 5.4375 -0.46875 5.296875 -0.46875 C 4.6875 -0.484375 4.6875 -0.609375 4.6875 -0.84375 L 4.6875 -2.984375 C 4.6875 -3.875 3.984375 -4.515625 2.5 -4.515625 C 1.9375 -4.515625 0.71875 -4.46875 0.71875 -3.59375 C 0.71875 -3.15625 1.0625 -2.96875 1.328125 -2.96875 C 1.640625 -2.96875 1.96875 -3.1875 1.96875 -3.59375 C 1.96875 -3.890625 1.78125 -4.0625 1.75 -4.09375 C 2.03125 -4.140625 2.34375 -4.15625 2.46875 -4.15625 C 3.203125 -4.15625 3.5625 -3.734375 3.5625 -2.984375 L 3.5625 -2.640625 C 2.84375 -2.609375 0.3125 -2.515625 0.3125 -1.078125 C 0.3125 -0.125 1.5625 0.0625 2.25 0.0625 C 3.046875 0.0625 3.515625 -0.34375 3.734375 -0.765625 Z M 3.5625 -2.328125 L 3.5625 -1.390625 C 3.5625 -0.421875 2.640625 -0.296875 2.390625 -0.296875 C 1.890625 -0.296875 1.484375 -0.640625 1.484375 -1.09375 C 1.484375 -2.15625 3.0625 -2.296875 3.5625 -2.328125 Z M 3.5625 -2.328125" stroke-linecap="round"/>
</g>
		<g transform="matrix(1.3333 0 0 1.3333 -48.8564 -1.2694)" id="surface1">
<path style="stroke: none; stroke-width: 1; stroke-dasharray: none; stroke-linecap: butt; stroke-dashoffset: 0; stroke-linejoin: miter; stroke-miterlimit: 4; is-custom-font: none; font-file-url: none; fill: rgb(0,0,0); fill-rule: nonzero; opacity: 1;" transform=" translate(-2.0078, 3.1328)" d="M 1.03125 -3.953125 L 1.03125 -1.21875 C 1.03125 -0.15625 1.890625 0.0625 2.609375 0.0625 C 3.359375 0.0625 3.8125 -0.515625 3.8125 -1.234375 L 3.8125 -1.765625 L 3.34375 -1.765625 L 3.34375 -1.25 C 3.34375 -0.578125 3.015625 -0.34375 2.734375 -0.34375 C 2.15625 -0.34375 2.15625 -0.984375 2.15625 -1.203125 L 2.15625 -3.953125 L 3.625 -3.953125 L 3.625 -4.421875 L 2.15625 -4.421875 L 2.15625 -6.328125 L 1.6875 -6.328125 C 1.6875 -5.328125 1.203125 -4.34375 0.203125 -4.3125 L 0.203125 -3.953125 Z M 1.03125 -3.953125" stroke-linecap="round"/>
</g>
		<g transform="matrix(1.3333 0 0 1.3333 -42.1039 -0.061)" id="surface1">
<path style="stroke: none; stroke-width: 1; stroke-dasharray: none; stroke-linecap: butt; stroke-dashoffset: 0; stroke-linejoin: miter; stroke-miterlimit: 4; is-custom-font: none; font-file-url: none; fill: rgb(0,0,0); fill-rule: nonzero; opacity: 1;" transform=" translate(-2.6172, 2.2266)" d="M 4.609375 -2.171875 C 4.828125 -2.171875 4.921875 -2.171875 4.921875 -2.4375 C 4.921875 -2.75 4.859375 -3.484375 4.359375 -3.984375 C 4 -4.34375 3.46875 -4.515625 2.78125 -4.515625 C 1.1875 -4.515625 0.3125 -3.484375 0.3125 -2.25 C 0.3125 -0.90625 1.3125 0.0625 2.921875 0.0625 C 4.5 0.0625 4.921875 -1 4.921875 -1.171875 C 4.921875 -1.34375 4.734375 -1.34375 4.6875 -1.34375 C 4.515625 -1.34375 4.5 -1.296875 4.4375 -1.140625 C 4.234375 -0.65625 3.65625 -0.34375 3.015625 -0.34375 C 1.609375 -0.34375 1.59375 -1.671875 1.59375 -2.171875 Z M 1.59375 -2.5 C 1.609375 -2.890625 1.625 -3.3125 1.828125 -3.640625 C 2.09375 -4.03125 2.5 -4.15625 2.78125 -4.15625 C 3.953125 -4.15625 3.96875 -2.84375 3.984375 -2.5 Z M 1.59375 -2.5" stroke-linecap="round"/>
</g>
		<g transform="matrix(1.3333 0 0 1.3333 -32.7933 -0.4257)" id="surface1">
<path style="stroke: none; stroke-width: 1; stroke-dasharray: none; stroke-linecap: butt; stroke-dashoffset: 0; stroke-linejoin: miter; stroke-miterlimit: 4; is-custom-font: none; font-file-url: none; fill: rgb(0,0,0); fill-rule: nonzero; opacity: 1;" transform=" translate(-2.4453, 2.5)" d="M 3.78125 2.25 C 3.484375 1.96875 2.84375 1.359375 2.421875 0.09375 C 2.15625 -0.703125 2.046875 -1.609375 2.046875 -2.5 C 2.046875 -4.453125 2.546875 -6.015625 3.65625 -7.125 C 3.796875 -7.28125 3.8125 -7.28125 3.8125 -7.34375 C 3.8125 -7.453125 3.703125 -7.484375 3.625 -7.484375 C 3.453125 -7.484375 3.046875 -7.109375 2.859375 -6.9375 C 1.3125 -5.390625 1.078125 -3.5625 1.078125 -2.5 C 1.078125 -1.25 1.40625 -0.15625 1.875 0.671875 C 2.53125 1.8125 3.4375 2.484375 3.625 2.484375 C 3.703125 2.484375 3.8125 2.453125 3.8125 2.34375 C 3.8125 2.296875 3.78125 2.25 3.78125 2.25 Z M 3.78125 2.25" stroke-linecap="round"/>
</g>
		<g transform="matrix(1.3333 0 0 1.3333 -26.697 -0.4257)" id="surface1">
<path style="stroke: none; stroke-width: 1; stroke-dasharray: none; stroke-linecap: butt; stroke-dashoffset: 0; stroke-linejoin: miter; stroke-miterlimit: 4; is-custom-font: none; font-file-url: none; fill: rgb(0,0,0); fill-rule: nonzero; opacity: 1;" transform=" translate(-2.5625, 2.5)" d="M 2.328125 -3.328125 C 2.265625 -3.484375 2.234375 -3.671875 2.234375 -3.84375 C 2.234375 -4.359375 2.53125 -5.125 3.078125 -5.5 C 3.296875 -5.203125 3.578125 -5.203125 3.8125 -5.203125 C 4.09375 -5.203125 4.890625 -5.203125 4.890625 -5.734375 C 4.890625 -6.15625 4.359375 -6.15625 3.9375 -6.15625 C 3.84375 -6.15625 3.59375 -6.15625 3.3125 -6.125 C 3.3125 -6.4375 3.375 -6.65625 3.375 -6.671875 C 3.40625 -6.765625 3.40625 -6.765625 3.40625 -6.796875 C 3.40625 -7 3.203125 -7.015625 3.1875 -7.015625 C 2.859375 -7.015625 2.859375 -6.421875 2.859375 -6.234375 C 2.859375 -6.171875 2.859375 -6.078125 2.875 -6.015625 C 1.625 -5.640625 1 -4.75 1 -3.984375 C 1 -3.515625 1.265625 -3.140625 1.53125 -2.953125 C 0.484375 -2.25 0.234375 -1.3125 0.234375 -0.9375 C 0.234375 -0.125 0.96875 0.28125 1.5625 0.484375 L 2.703125 0.875 C 2.953125 0.953125 3.375 1.109375 3.453125 1.140625 C 3.53125 1.1875 3.578125 1.28125 3.578125 1.359375 C 3.578125 1.390625 3.5625 1.65625 3.265625 1.65625 C 3.203125 1.65625 2.71875 1.640625 2.265625 1.40625 C 2.203125 1.359375 2.1875 1.359375 2.140625 1.359375 C 2 1.359375 1.9375 1.46875 1.9375 1.53125 C 1.9375 1.78125 2.78125 2.015625 3.28125 2.015625 C 4.0625 2.015625 4.46875 1.296875 4.46875 0.828125 C 4.46875 0.40625 4.171875 0.15625 3.984375 0.078125 C 3.84375 0.03125 2.90625 -0.296875 2.65625 -0.375 L 2 -0.59375 C 1.65625 -0.71875 1.078125 -0.921875 1.078125 -1.390625 C 1.078125 -1.984375 1.828125 -2.6875 1.953125 -2.6875 C 1.96875 -2.6875 1.96875 -2.6875 2.03125 -2.671875 C 2.515625 -2.5 2.828125 -2.5 3.09375 -2.5 C 3.40625 -2.5 4.234375 -2.5 4.234375 -3.046875 C 4.234375 -3.453125 3.609375 -3.453125 3.28125 -3.453125 C 3.09375 -3.453125 2.78125 -3.453125 2.328125 -3.328125 Z M 3.40625 -5.71875 C 3.609375 -5.796875 3.78125 -5.796875 3.921875 -5.796875 C 4.234375 -5.796875 4.265625 -5.796875 4.421875 -5.734375 C 4.421875 -5.71875 4.421875 -5.71875 4.390625 -5.671875 C 4.296875 -5.5625 3.921875 -5.5625 3.8125 -5.5625 C 3.65625 -5.5625 3.5 -5.5625 3.40625 -5.71875 Z M 2.578125 -3 C 2.84375 -3.09375 3.078125 -3.09375 3.234375 -3.09375 C 3.5625 -3.09375 3.59375 -3.09375 3.75 -3.03125 C 3.734375 -3.015625 3.734375 -2.984375 3.71875 -2.96875 C 3.625 -2.859375 3.25 -2.859375 3.125 -2.859375 C 2.96875 -2.859375 2.75 -2.859375 2.578125 -3 Z M 2.578125 -3" stroke-linecap="round"/>
</g>
		<g transform="matrix(1.3333 0 0 1.3333 -20.2845 -0.4257)" id="surface1">
<path style="stroke: none; stroke-width: 1; stroke-dasharray: none; stroke-linecap: butt; stroke-dashoffset: 0; stroke-linejoin: miter; stroke-miterlimit: 4; is-custom-font: none; font-file-url: none; fill: rgb(0,0,0); fill-rule: nonzero; opacity: 1;" transform=" translate(-2.0078, 2.5)" d="M 3.375 -2.5 C 3.375 -3.734375 3.046875 -4.828125 2.578125 -5.65625 C 1.90625 -6.8125 1 -7.484375 0.8125 -7.484375 C 0.734375 -7.484375 0.640625 -7.453125 0.640625 -7.34375 C 0.640625 -7.28125 0.640625 -7.265625 0.8125 -7.109375 C 2.0625 -5.828125 2.40625 -4.0625 2.40625 -2.5 C 2.40625 -0.53125 1.890625 1.03125 0.796875 2.140625 C 0.640625 2.28125 0.640625 2.296875 0.640625 2.34375 C 0.640625 2.453125 0.734375 2.484375 0.8125 2.484375 C 0.984375 2.484375 1.40625 2.109375 1.578125 1.9375 C 3.140625 0.40625 3.375 -1.4375 3.375 -2.5 Z M 3.375 -2.5" stroke-linecap="round"/>
</g>
		<g transform="matrix(1.3333 0 0 1.3333 -9.8011 -0.4153)" id="surface1">
<path style="stroke: none; stroke-width: 1; stroke-dasharray: none; stroke-linecap: butt; stroke-dashoffset: 0; stroke-linejoin: miter; stroke-miterlimit: 4; is-custom-font: none; font-file-url: none; fill: rgb(0,0,0); fill-rule: nonzero; opacity: 1;" transform=" translate(-2.8594, 2.4922)" d="M 4.453125 2.203125 C 4.5 2.328125 4.578125 2.5 4.78125 2.5 C 4.921875 2.5 5.078125 2.375 5.078125 2.1875 C 5.078125 2.140625 5.078125 2.125 5.03125 2 L 1.265625 -7.171875 C 1.203125 -7.328125 1.140625 -7.484375 0.9375 -7.484375 C 0.796875 -7.484375 0.640625 -7.359375 0.640625 -7.171875 C 0.640625 -7.125 0.640625 -7.109375 0.703125 -6.984375 Z M 4.453125 2.203125" stroke-linecap="round"/>
</g>
		<g transform="matrix(1.3333 0 0 1.3333 8.0233 -1.6548)" id="surface1">
<path style="stroke: none; stroke-width: 1; stroke-dasharray: none; stroke-linecap: butt; stroke-dashoffset: 0; stroke-linejoin: miter; stroke-miterlimit: 4; is-custom-font: none; font-file-url: none; fill: rgb(0,0,0); fill-rule: nonzero; opacity: 1;" transform=" translate(-4.1406, 3.4219)" d="M 7.640625 -6.671875 C 7.640625 -6.859375 7.640625 -6.953125 7.453125 -6.953125 C 7.359375 -6.953125 7.34375 -6.921875 7.265625 -6.859375 L 6.609375 -6.265625 C 5.984375 -6.765625 5.328125 -6.953125 4.640625 -6.953125 C 2.15625 -6.953125 0.640625 -5.46875 0.640625 -3.421875 C 0.640625 -1.375 2.15625 0.109375 4.640625 0.109375 C 6.515625 0.109375 7.640625 -1.109375 7.640625 -2.265625 C 7.640625 -2.46875 7.5625 -2.46875 7.390625 -2.46875 C 7.265625 -2.46875 7.171875 -2.46875 7.171875 -2.296875 C 7.09375 -0.96875 5.890625 -0.359375 4.890625 -0.359375 C 4.109375 -0.359375 3.265625 -0.59375 2.75 -1.203125 C 2.28125 -1.78125 2.15625 -2.515625 2.15625 -3.421875 C 2.15625 -3.984375 2.1875 -5.046875 2.828125 -5.71875 C 3.46875 -6.375 4.34375 -6.484375 4.859375 -6.484375 C 5.9375 -6.484375 6.875 -5.71875 7.09375 -4.453125 C 7.125 -4.265625 7.140625 -4.25 7.359375 -4.25 C 7.625 -4.25 7.640625 -4.265625 7.640625 -4.53125 Z M 7.640625 -6.671875" stroke-linecap="round"/>
</g>
		<g transform="matrix(1.3333 0 0 1.3333 17.343 -0.061)" id="surface1">
<path style="stroke: none; stroke-width: 1; stroke-dasharray: none; stroke-linecap: butt; stroke-dashoffset: 0; stroke-linejoin: miter; stroke-miterlimit: 4; is-custom-font: none; font-file-url: none; fill: rgb(0,0,0); fill-rule: nonzero; opacity: 1;" transform=" translate(-2.8594, 2.2266)" d="M 5.40625 -2.171875 C 5.40625 -3.515625 4.484375 -4.515625 2.859375 -4.515625 C 1.21875 -4.515625 0.3125 -3.5 0.3125 -2.171875 C 0.3125 -0.9375 1.203125 0.0625 2.859375 0.0625 C 4.53125 0.0625 5.40625 -0.953125 5.40625 -2.171875 Z M 2.859375 -0.34375 C 1.59375 -0.34375 1.59375 -1.421875 1.59375 -2.28125 C 1.59375 -2.734375 1.59375 -3.234375 1.765625 -3.578125 C 1.953125 -3.953125 2.375 -4.15625 2.859375 -4.15625 C 3.28125 -4.15625 3.703125 -4 3.921875 -3.65625 C 4.125 -3.3125 4.125 -2.765625 4.125 -2.28125 C 4.125 -1.421875 4.125 -0.34375 2.859375 -0.34375 Z M 2.859375 -0.34375" stroke-linecap="round"/>
</g>
		<g transform="matrix(1.3333 0 0 1.3333 25.5479 -0.0818)" id="surface1">
<path style="stroke: none; stroke-width: 1; stroke-dasharray: none; stroke-linecap: butt; stroke-dashoffset: 0; stroke-linejoin: miter; stroke-miterlimit: 4; is-custom-font: none; font-file-url: none; fill: rgb(0,0,0); fill-rule: nonzero; opacity: 1;" transform=" translate(-3.2891, 2.2422)" d="M 1.140625 -3.546875 L 1.140625 -0.46875 L 0.453125 -0.46875 L 0.453125 0 C 0.734375 -0.015625 1.328125 -0.03125 1.703125 -0.03125 C 2.09375 -0.03125 2.6875 -0.015625 2.953125 0 L 2.953125 -0.46875 L 2.265625 -0.46875 L 2.265625 -2.546875 C 2.265625 -3.640625 3.125 -4.125 3.765625 -4.125 C 4.09375 -4.125 4.3125 -3.921875 4.3125 -3.15625 L 4.3125 -0.46875 L 3.625 -0.46875 L 3.625 0 C 3.890625 -0.015625 4.5 -0.03125 4.875 -0.03125 C 5.265625 -0.03125 5.859375 -0.015625 6.125 0 L 6.125 -0.46875 L 5.4375 -0.46875 L 5.4375 -3.046875 C 5.4375 -4.09375 4.90625 -4.484375 3.90625 -4.484375 C 2.953125 -4.484375 2.421875 -3.921875 2.15625 -3.40625 L 2.15625 -4.484375 L 0.453125 -4.40625 L 0.453125 -3.9375 C 1.0625 -3.9375 1.140625 -3.9375 1.140625 -3.546875 Z M 1.140625 -3.546875" stroke-linecap="round"/>
</g>
		<g transform="matrix(1.3333 0 0 1.3333 31.9035 -1.2694)" id="surface1">
<path style="stroke: none; stroke-width: 1; stroke-dasharray: none; stroke-linecap: butt; stroke-dashoffset: 0; stroke-linejoin: miter; stroke-miterlimit: 4; is-custom-font: none; font-file-url: none; fill: rgb(0,0,0); fill-rule: nonzero; opacity: 1;" transform=" translate(-2.0078, 3.1328)" d="M 1.03125 -3.953125 L 1.03125 -1.21875 C 1.03125 -0.15625 1.890625 0.0625 2.609375 0.0625 C 3.359375 0.0625 3.8125 -0.515625 3.8125 -1.234375 L 3.8125 -1.765625 L 3.34375 -1.765625 L 3.34375 -1.25 C 3.34375 -0.578125 3.015625 -0.34375 2.734375 -0.34375 C 2.15625 -0.34375 2.15625 -0.984375 2.15625 -1.203125 L 2.15625 -3.953125 L 3.625 -3.953125 L 3.625 -4.421875 L 2.15625 -4.421875 L 2.15625 -6.328125 L 1.6875 -6.328125 C 1.6875 -5.328125 1.203125 -4.34375 0.203125 -4.3125 L 0.203125 -3.953125 Z M 1.03125 -3.953125" stroke-linecap="round"/>
</g>
		<g transform="matrix(1.3333 0 0 1.3333 38.354 -0.0818)" id="surface1">
<path style="stroke: none; stroke-width: 1; stroke-dasharray: none; stroke-linecap: butt; stroke-dashoffset: 0; stroke-linejoin: miter; stroke-miterlimit: 4; is-custom-font: none; font-file-url: none; fill: rgb(0,0,0); fill-rule: nonzero; opacity: 1;" transform=" translate(-2.3906, 2.2422)" d="M 2.03125 -3.359375 L 2.03125 -4.484375 L 0.375 -4.40625 L 0.375 -3.9375 C 0.984375 -3.9375 1.0625 -3.9375 1.0625 -3.546875 L 1.0625 -0.46875 L 0.375 -0.46875 L 0.375 0 C 0.71875 -0.015625 1.171875 -0.03125 1.625 -0.03125 C 2 -0.03125 2.640625 -0.03125 3 0 L 3 -0.46875 L 2.140625 -0.46875 L 2.140625 -2.21875 C 2.140625 -2.90625 2.375 -4.125 3.375 -4.125 C 3.375 -4.109375 3.1875 -3.953125 3.1875 -3.671875 C 3.1875 -3.265625 3.515625 -3.0625 3.796875 -3.0625 C 4.09375 -3.0625 4.40625 -3.265625 4.40625 -3.671875 C 4.40625 -4.203125 3.875 -4.484375 3.34375 -4.484375 C 2.65625 -4.484375 2.25 -3.984375 2.03125 -3.359375 Z M 2.03125 -3.359375" stroke-linecap="round"/>
</g>
		<g transform="matrix(1.3333 0 0 1.3333 45.2669 -0.061)" id="surface1">
<path style="stroke: none; stroke-width: 1; stroke-dasharray: none; stroke-linecap: butt; stroke-dashoffset: 0; stroke-linejoin: miter; stroke-miterlimit: 4; is-custom-font: none; font-file-url: none; fill: rgb(0,0,0); fill-rule: nonzero; opacity: 1;" transform=" translate(-2.8594, 2.2266)" d="M 5.40625 -2.171875 C 5.40625 -3.515625 4.484375 -4.515625 2.859375 -4.515625 C 1.21875 -4.515625 0.3125 -3.5 0.3125 -2.171875 C 0.3125 -0.9375 1.203125 0.0625 2.859375 0.0625 C 4.53125 0.0625 5.40625 -0.953125 5.40625 -2.171875 Z M 2.859375 -0.34375 C 1.59375 -0.34375 1.59375 -1.421875 1.59375 -2.28125 C 1.59375 -2.734375 1.59375 -3.234375 1.765625 -3.578125 C 1.953125 -3.953125 2.375 -4.15625 2.859375 -4.15625 C 3.28125 -4.15625 3.703125 -4 3.921875 -3.65625 C 4.125 -3.3125 4.125 -2.765625 4.125 -2.28125 C 4.125 -1.421875 4.125 -0.34375 2.859375 -0.34375 Z M 2.859375 -0.34375" stroke-linecap="round"/>
</g>
		<g transform="matrix(1.3333 0 0 1.3333 51.3469 -1.7069)" id="surface1">
<path style="stroke: none; stroke-width: 1; stroke-dasharray: none; stroke-linecap: butt; stroke-dashoffset: 0; stroke-linejoin: miter; stroke-miterlimit: 4; is-custom-font: none; font-file-url: none; fill: rgb(0,0,0); fill-rule: nonzero; opacity: 1;" transform=" translate(-1.6953, 3.4609)" d="M 2.234375 -6.921875 L 0.46875 -6.84375 L 0.46875 -6.375 C 1.09375 -6.375 1.15625 -6.375 1.15625 -5.984375 L 1.15625 -0.46875 L 0.46875 -0.46875 L 0.46875 0 C 0.78125 -0.015625 1.265625 -0.03125 1.6875 -0.03125 C 2.125 -0.03125 2.578125 -0.015625 2.921875 0 L 2.921875 -0.46875 L 2.234375 -0.46875 Z M 2.234375 -6.921875" stroke-linecap="round"/>
</g>
		<g transform="matrix(1.3333 0 0 1.3333 56.5949 -0.4257)" id="surface1">
<path style="stroke: none; stroke-width: 1; stroke-dasharray: none; stroke-linecap: butt; stroke-dashoffset: 0; stroke-linejoin: miter; stroke-miterlimit: 4; is-custom-font: none; font-file-url: none; fill: rgb(0,0,0); fill-rule: nonzero; opacity: 1;" transform=" translate(-2.4453, 2.5)" d="M 3.78125 2.25 C 3.484375 1.96875 2.84375 1.359375 2.421875 0.09375 C 2.15625 -0.703125 2.046875 -1.609375 2.046875 -2.5 C 2.046875 -4.453125 2.546875 -6.015625 3.65625 -7.125 C 3.796875 -7.28125 3.8125 -7.28125 3.8125 -7.34375 C 3.8125 -7.453125 3.703125 -7.484375 3.625 -7.484375 C 3.453125 -7.484375 3.046875 -7.109375 2.859375 -6.9375 C 1.3125 -5.390625 1.078125 -3.5625 1.078125 -2.5 C 1.078125 -1.25 1.40625 -0.15625 1.875 0.671875 C 2.53125 1.8125 3.4375 2.484375 3.625 2.484375 C 3.703125 2.484375 3.8125 2.453125 3.8125 2.34375 C 3.8125 2.296875 3.78125 2.25 3.78125 2.25 Z M 3.78125 2.25" stroke-linecap="round"/>
</g>
		<g transform="matrix(1.3333 0 0 1.3333 63.6598 -0.0402)" id="surface1">
<path style="stroke: none; stroke-width: 1; stroke-dasharray: none; stroke-linecap: butt; stroke-dashoffset: 0; stroke-linejoin: miter; stroke-miterlimit: 4; is-custom-font: none; font-file-url: none; fill: rgb(0,0,0); fill-rule: nonzero; opacity: 1;" transform=" translate(-3.2891, 2.2109)" d="M 4.359375 -0.71875 L 4.359375 0.0625 L 6.125 0 L 6.125 -0.46875 C 5.515625 -0.46875 5.4375 -0.46875 5.4375 -0.859375 L 5.4375 -4.484375 L 3.625 -4.40625 L 3.625 -3.9375 C 4.234375 -3.9375 4.3125 -3.9375 4.3125 -3.546875 L 4.3125 -1.640625 C 4.3125 -0.828125 3.796875 -0.296875 3.078125 -0.296875 C 2.296875 -0.296875 2.265625 -0.546875 2.265625 -1.09375 L 2.265625 -4.484375 L 0.453125 -4.40625 L 0.453125 -3.9375 C 1.0625 -3.9375 1.140625 -3.9375 1.140625 -3.546875 L 1.140625 -1.21875 C 1.140625 -0.15625 1.9375 0.0625 2.9375 0.0625 C 3.1875 0.0625 3.90625 0.0625 4.359375 -0.71875 Z M 4.359375 -0.71875" stroke-linecap="round"/>
</g>
		<g transform="matrix(1.3333 0 0 1.3333 70.4355 -0.4257)" id="surface1">
<path style="stroke: none; stroke-width: 1; stroke-dasharray: none; stroke-linecap: butt; stroke-dashoffset: 0; stroke-linejoin: miter; stroke-miterlimit: 4; is-custom-font: none; font-file-url: none; fill: rgb(0,0,0); fill-rule: nonzero; opacity: 1;" transform=" translate(-2.0078, 2.5)" d="M 3.375 -2.5 C 3.375 -3.734375 3.046875 -4.828125 2.578125 -5.65625 C 1.90625 -6.8125 1 -7.484375 0.8125 -7.484375 C 0.734375 -7.484375 0.640625 -7.453125 0.640625 -7.34375 C 0.640625 -7.28125 0.640625 -7.265625 0.8125 -7.109375 C 2.0625 -5.828125 2.40625 -4.0625 2.40625 -2.5 C 2.40625 -0.53125 1.890625 1.03125 0.796875 2.140625 C 0.640625 2.28125 0.640625 2.296875 0.640625 2.34375 C 0.640625 2.453125 0.734375 2.484375 0.8125 2.484375 C 0.984375 2.484375 1.40625 2.109375 1.578125 1.9375 C 3.140625 0.40625 3.375 -1.4375 3.375 -2.5 Z M 3.375 -2.5" stroke-linecap="round"/>
</g>
</g>
</g>
</svg>